<?xml version="1.0" encoding="UTF-8" standalone="no"?>
<!DOCTYPE svg PUBLIC "-//W3C//DTD SVG 1.1//EN"
 "http://www.w3.org/Graphics/SVG/1.1/DTD/svg11.dtd">
<!-- Generated by graphviz version 12.1.2 (0)
 -->
<!-- Title: g Pages: 1 -->
<svg width="486pt" height="313pt"
 viewBox="0.00 0.00 486.25 313.25" xmlns="http://www.w3.org/2000/svg" xmlns:xlink="http://www.w3.org/1999/xlink">
<g id="graph0" class="graph" transform="scale(1 1) rotate(0) translate(4 309.25)">
<title>g</title>
<polygon fill="white" stroke="none" points="-4,4 -4,-309.25 482.25,-309.25 482.25,4 -4,4"/>
<!-- 0 -->
<g id="node1" class="node">
<title>0</title>
<polygon fill="none" stroke="black" stroke-width="2" points="297.25,-305.25 243.25,-305.25 243.25,-269.25 297.25,-269.25 297.25,-305.25"/>
<text text-anchor="middle" x="270.25" y="-282.57" font-family="Times,serif" font-size="14.00">0: a</text>
</g>
<!-- &#45;50 -->
<g id="node2" class="node">
<title>&#45;50</title>
<polygon fill="none" stroke="black" stroke-width="2" points="245.5,-233.25 189,-233.25 189,-197.25 245.5,-197.25 245.5,-233.25"/>
<text text-anchor="middle" x="217.25" y="-210.57" font-family="Times,serif" font-size="14.00">&#45;50: b</text>
</g>
<!-- 0&#45;&gt;&#45;50 -->
<g id="edge1" class="edge">
<title>0&#45;&gt;&#45;50</title>
<path fill="none" stroke="black" d="M256.88,-268.59C251.08,-260.94 244.17,-251.81 237.75,-243.33"/>
<polygon fill="black" stroke="black" points="240.54,-241.22 231.72,-235.36 234.96,-245.44 240.54,-241.22"/>
</g>
<!-- 20 -->
<g id="node3" class="node">
<title>20</title>
<polygon fill="none" stroke="black" stroke-width="2" points="350.25,-233.25 296.25,-233.25 296.25,-197.25 350.25,-197.25 350.25,-233.25"/>
<text text-anchor="middle" x="323.25" y="-210.57" font-family="Times,serif" font-size="14.00">20: c</text>
</g>
<!-- 0&#45;&gt;20 -->
<g id="edge2" class="edge">
<title>0&#45;&gt;20</title>
<path fill="none" stroke="black" d="M283.62,-268.59C289.42,-260.94 296.33,-251.81 302.75,-243.33"/>
<polygon fill="black" stroke="black" points="305.54,-245.44 308.78,-235.36 299.96,-241.22 305.54,-245.44"/>
</g>
<!-- &#45;150 -->
<g id="node4" class="node">
<title>&#45;150</title>
<polygon fill="none" stroke="red" stroke-width="2" points="153.75,-161.25 92.75,-161.25 92.75,-125.25 153.75,-125.25 153.75,-161.25"/>
<text text-anchor="middle" x="123.25" y="-138.57" font-family="Times,serif" font-size="14.00">&#45;150: l</text>
</g>
<!-- &#45;50&#45;&gt;&#45;150 -->
<g id="edge3" class="edge">
<title>&#45;50&#45;&gt;&#45;150</title>
<path fill="none" stroke="black" d="M193.53,-196.59C182.26,-188.19 168.6,-178.02 156.34,-168.89"/>
<polygon fill="black" stroke="black" points="158.61,-166.22 148.5,-163.06 154.43,-171.84 158.61,-166.22"/>
</g>
<!-- &#45;10 -->
<g id="node5" class="node">
<title>&#45;10</title>
<polygon fill="none" stroke="black" stroke-width="2" points="245.5,-161.25 189,-161.25 189,-125.25 245.5,-125.25 245.5,-161.25"/>
<text text-anchor="middle" x="217.25" y="-138.57" font-family="Times,serif" font-size="14.00">&#45;10: d</text>
</g>
<!-- &#45;50&#45;&gt;&#45;10 -->
<g id="edge4" class="edge">
<title>&#45;50&#45;&gt;&#45;10</title>
<path fill="none" stroke="black" d="M217.25,-196.59C217.25,-189.59 217.25,-181.37 217.25,-173.53"/>
<polygon fill="black" stroke="black" points="220.75,-173.67 217.25,-163.67 213.75,-173.67 220.75,-173.67"/>
</g>
<!-- 15 -->
<g id="node16" class="node">
<title>15</title>
<polygon fill="none" stroke="black" stroke-width="2" points="350.25,-161.25 296.25,-161.25 296.25,-125.25 350.25,-125.25 350.25,-161.25"/>
<text text-anchor="middle" x="323.25" y="-138.57" font-family="Times,serif" font-size="14.00">15: i</text>
</g>
<!-- 20&#45;&gt;15 -->
<g id="edge15" class="edge">
<title>20&#45;&gt;15</title>
<path fill="none" stroke="black" d="M323.25,-196.59C323.25,-189.59 323.25,-181.37 323.25,-173.53"/>
<polygon fill="black" stroke="black" points="326.75,-173.67 323.25,-163.67 319.75,-173.67 326.75,-173.67"/>
</g>
<!-- 100 -->
<g id="node17" class="node">
<title>100</title>
<polygon fill="none" stroke="black" stroke-width="2" points="445.75,-161.25 384.75,-161.25 384.75,-125.25 445.75,-125.25 445.75,-161.25"/>
<text text-anchor="middle" x="415.25" y="-138.57" font-family="Times,serif" font-size="14.00">100: h</text>
</g>
<!-- 20&#45;&gt;100 -->
<g id="edge16" class="edge">
<title>20&#45;&gt;100</title>
<path fill="none" stroke="black" d="M346.47,-196.59C357.49,-188.19 370.86,-178.02 382.87,-168.89"/>
<polygon fill="black" stroke="black" points="384.68,-171.91 390.52,-163.07 380.44,-166.34 384.68,-171.91"/>
</g>
<!-- &#45;1000 -->
<g id="node6" class="node">
<title>&#45;1000</title>
<polygon fill="none" stroke="black" stroke-width="2" points="74.5,-89.25 0,-89.25 0,-53.25 74.5,-53.25 74.5,-89.25"/>
<text text-anchor="middle" x="37.25" y="-66.58" font-family="Times,serif" font-size="14.00">&#45;1000: g</text>
</g>
<!-- &#45;150&#45;&gt;&#45;1000 -->
<g id="edge5" class="edge">
<title>&#45;150&#45;&gt;&#45;1000</title>
<path fill="none" stroke="black" d="M101.55,-124.59C91.34,-116.28 78.99,-106.22 67.85,-97.16"/>
<polygon fill="black" stroke="black" points="70.38,-94.71 60.42,-91.11 65.96,-100.13 70.38,-94.71"/>
</g>
<!-- &#45;100 -->
<g id="node7" class="node">
<title>&#45;100</title>
<polygon fill="none" stroke="black" stroke-width="2" points="154.12,-89.25 92.38,-89.25 92.38,-53.25 154.12,-53.25 154.12,-89.25"/>
<text text-anchor="middle" x="123.25" y="-66.58" font-family="Times,serif" font-size="14.00">&#45;100: f</text>
</g>
<!-- &#45;150&#45;&gt;&#45;100 -->
<g id="edge6" class="edge">
<title>&#45;150&#45;&gt;&#45;100</title>
<path fill="none" stroke="black" d="M123.25,-124.59C123.25,-117.59 123.25,-109.37 123.25,-101.53"/>
<polygon fill="black" stroke="black" points="126.75,-101.67 123.25,-91.67 119.75,-101.67 126.75,-101.67"/>
</g>
<!-- &#45;30 -->
<g id="node12" class="node">
<title>&#45;30</title>
<polygon fill="none" stroke="red" stroke-width="2" points="226.25,-89.25 172.25,-89.25 172.25,-53.25 226.25,-53.25 226.25,-89.25"/>
<text text-anchor="middle" x="199.25" y="-66.58" font-family="Times,serif" font-size="14.00">&#45;30: j</text>
</g>
<!-- &#45;10&#45;&gt;&#45;30 -->
<g id="edge11" class="edge">
<title>&#45;10&#45;&gt;&#45;30</title>
<path fill="none" stroke="black" d="M212.71,-124.59C210.89,-117.51 208.74,-109.17 206.71,-101.25"/>
<polygon fill="black" stroke="black" points="210.11,-100.43 204.23,-91.62 203.33,-102.17 210.11,-100.43"/>
</g>
<!-- &#45;10_right_nil -->
<g id="node13" class="node">
<title>&#45;10_right_nil</title>
<text text-anchor="middle" x="253.25" y="-66.58" font-family="Times,serif" font-size="14.00">nil</text>
</g>
<!-- &#45;10&#45;&gt;&#45;10_right_nil -->
<g id="edge12" class="edge">
<title>&#45;10&#45;&gt;&#45;10_right_nil</title>
<path fill="none" stroke="black" d="M226.33,-124.59C231.78,-114 238.68,-100.58 244.13,-89.98"/>
<polygon fill="black" stroke="black" points="247.19,-91.69 248.65,-81.2 240.96,-88.49 247.19,-91.69"/>
</g>
<!-- &#45;1000_left_nil -->
<g id="node8" class="node">
<title>&#45;1000_left_nil</title>
<text text-anchor="middle" x="19.25" y="-3.95" font-family="Times,serif" font-size="14.00">nil</text>
</g>
<!-- &#45;1000&#45;&gt;&#45;1000_left_nil -->
<g id="edge7" class="edge">
<title>&#45;1000&#45;&gt;&#45;1000_left_nil</title>
<path fill="none" stroke="black" d="M31.95,-52.39C29.66,-44.69 26.99,-35.69 24.69,-27.94"/>
<polygon fill="black" stroke="black" points="28.12,-27.19 21.92,-18.6 21.41,-29.18 28.12,-27.19"/>
</g>
<!-- &#45;1000_right_nil -->
<g id="node9" class="node">
<title>&#45;1000_right_nil</title>
<text text-anchor="middle" x="55.25" y="-3.95" font-family="Times,serif" font-size="14.00">nil</text>
</g>
<!-- &#45;1000&#45;&gt;&#45;1000_right_nil -->
<g id="edge8" class="edge">
<title>&#45;1000&#45;&gt;&#45;1000_right_nil</title>
<path fill="none" stroke="black" d="M42.55,-52.39C44.84,-44.69 47.51,-35.69 49.81,-27.94"/>
<polygon fill="black" stroke="black" points="53.09,-29.18 52.58,-18.6 46.38,-27.19 53.09,-29.18"/>
</g>
<!-- &#45;100_left_nil -->
<g id="node10" class="node">
<title>&#45;100_left_nil</title>
<text text-anchor="middle" x="107.25" y="-3.95" font-family="Times,serif" font-size="14.00">nil</text>
</g>
<!-- &#45;100&#45;&gt;&#45;100_left_nil -->
<g id="edge9" class="edge">
<title>&#45;100&#45;&gt;&#45;100_left_nil</title>
<path fill="none" stroke="black" d="M118.54,-52.39C116.53,-44.78 114.18,-35.9 112.16,-28.21"/>
<polygon fill="black" stroke="black" points="115.56,-27.39 109.62,-18.61 108.79,-29.18 115.56,-27.39"/>
</g>
<!-- &#45;100_right_nil -->
<g id="node11" class="node">
<title>&#45;100_right_nil</title>
<text text-anchor="middle" x="143.25" y="-3.95" font-family="Times,serif" font-size="14.00">nil</text>
</g>
<!-- &#45;100&#45;&gt;&#45;100_right_nil -->
<g id="edge10" class="edge">
<title>&#45;100&#45;&gt;&#45;100_right_nil</title>
<path fill="none" stroke="black" d="M129.14,-52.39C131.68,-44.69 134.65,-35.69 137.21,-27.94"/>
<polygon fill="black" stroke="black" points="140.48,-29.18 140.29,-18.59 133.84,-26.99 140.48,-29.18"/>
</g>
<!-- &#45;30_left_nil -->
<g id="node14" class="node">
<title>&#45;30_left_nil</title>
<text text-anchor="middle" x="189.25" y="-3.95" font-family="Times,serif" font-size="14.00">nil</text>
</g>
<!-- &#45;30&#45;&gt;&#45;30_left_nil -->
<g id="edge13" class="edge">
<title>&#45;30&#45;&gt;&#45;30_left_nil</title>
<path fill="none" stroke="black" d="M196.3,-52.39C195.06,-44.87 193.62,-36.12 192.36,-28.49"/>
<polygon fill="black" stroke="black" points="195.82,-27.94 190.74,-18.64 188.91,-29.08 195.82,-27.94"/>
</g>
<!-- &#45;30_right_nil -->
<g id="node15" class="node">
<title>&#45;30_right_nil</title>
<text text-anchor="middle" x="225.25" y="-3.95" font-family="Times,serif" font-size="14.00">nil</text>
</g>
<!-- &#45;30&#45;&gt;&#45;30_right_nil -->
<g id="edge14" class="edge">
<title>&#45;30&#45;&gt;&#45;30_right_nil</title>
<path fill="none" stroke="black" d="M206.91,-52.39C210.25,-44.6 214.16,-35.47 217.52,-27.66"/>
<polygon fill="black" stroke="black" points="220.7,-29.11 221.43,-18.54 214.27,-26.35 220.7,-29.11"/>
</g>
<!-- 10 -->
<g id="node18" class="node">
<title>10</title>
<polygon fill="none" stroke="red" stroke-width="2" points="334.25,-89.25 280.25,-89.25 280.25,-53.25 334.25,-53.25 334.25,-89.25"/>
<text text-anchor="middle" x="307.25" y="-66.58" font-family="Times,serif" font-size="14.00">10: e</text>
</g>
<!-- 15&#45;&gt;10 -->
<g id="edge17" class="edge">
<title>15&#45;&gt;10</title>
<path fill="none" stroke="black" d="M319.21,-124.59C317.6,-117.51 315.69,-109.17 313.88,-101.25"/>
<polygon fill="black" stroke="black" points="317.32,-100.6 311.68,-91.63 310.5,-102.16 317.32,-100.6"/>
</g>
<!-- 15_right_nil -->
<g id="node19" class="node">
<title>15_right_nil</title>
<text text-anchor="middle" x="361.25" y="-66.58" font-family="Times,serif" font-size="14.00">nil</text>
</g>
<!-- 15&#45;&gt;15_right_nil -->
<g id="edge18" class="edge">
<title>15&#45;&gt;15_right_nil</title>
<path fill="none" stroke="black" d="M332.84,-124.59C338.65,-113.88 346.03,-100.29 351.81,-89.64"/>
<polygon fill="black" stroke="black" points="354.71,-91.64 356.4,-81.18 348.56,-88.3 354.71,-91.64"/>
</g>
<!-- 45 -->
<g id="node22" class="node">
<title>45</title>
<polygon fill="none" stroke="red" stroke-width="2" points="442.25,-89.25 388.25,-89.25 388.25,-53.25 442.25,-53.25 442.25,-89.25"/>
<text text-anchor="middle" x="415.25" y="-66.58" font-family="Times,serif" font-size="14.00">45: k</text>
</g>
<!-- 100&#45;&gt;45 -->
<g id="edge21" class="edge">
<title>100&#45;&gt;45</title>
<path fill="none" stroke="black" d="M415.25,-124.59C415.25,-117.59 415.25,-109.37 415.25,-101.53"/>
<polygon fill="black" stroke="black" points="418.75,-101.67 415.25,-91.67 411.75,-101.67 418.75,-101.67"/>
</g>
<!-- 100_right_nil -->
<g id="node23" class="node">
<title>100_right_nil</title>
<text text-anchor="middle" x="469.25" y="-66.58" font-family="Times,serif" font-size="14.00">nil</text>
</g>
<!-- 100&#45;&gt;100_right_nil -->
<g id="edge22" class="edge">
<title>100&#45;&gt;100_right_nil</title>
<path fill="none" stroke="black" d="M428.88,-124.59C437.39,-113.55 448.28,-99.43 456.61,-88.64"/>
<polygon fill="black" stroke="black" points="459.13,-91.1 462.46,-81.05 453.58,-86.83 459.13,-91.1"/>
</g>
<!-- 10_left_nil -->
<g id="node20" class="node">
<title>10_left_nil</title>
<text text-anchor="middle" x="289.25" y="-3.95" font-family="Times,serif" font-size="14.00">nil</text>
</g>
<!-- 10&#45;&gt;10_left_nil -->
<g id="edge19" class="edge">
<title>10&#45;&gt;10_left_nil</title>
<path fill="none" stroke="black" d="M301.95,-52.39C299.66,-44.69 296.99,-35.69 294.69,-27.94"/>
<polygon fill="black" stroke="black" points="298.12,-27.19 291.92,-18.6 291.41,-29.18 298.12,-27.19"/>
</g>
<!-- 10_right_nil -->
<g id="node21" class="node">
<title>10_right_nil</title>
<text text-anchor="middle" x="325.25" y="-3.95" font-family="Times,serif" font-size="14.00">nil</text>
</g>
<!-- 10&#45;&gt;10_right_nil -->
<g id="edge20" class="edge">
<title>10&#45;&gt;10_right_nil</title>
<path fill="none" stroke="black" d="M312.55,-52.39C314.84,-44.69 317.51,-35.69 319.81,-27.94"/>
<polygon fill="black" stroke="black" points="323.09,-29.18 322.58,-18.6 316.38,-27.19 323.09,-29.18"/>
</g>
<!-- 45_left_nil -->
<g id="node24" class="node">
<title>45_left_nil</title>
<text text-anchor="middle" x="397.25" y="-3.95" font-family="Times,serif" font-size="14.00">nil</text>
</g>
<!-- 45&#45;&gt;45_left_nil -->
<g id="edge23" class="edge">
<title>45&#45;&gt;45_left_nil</title>
<path fill="none" stroke="black" d="M409.95,-52.39C407.66,-44.69 404.99,-35.69 402.69,-27.94"/>
<polygon fill="black" stroke="black" points="406.12,-27.19 399.92,-18.6 399.41,-29.18 406.12,-27.19"/>
</g>
<!-- 45_right_nil -->
<g id="node25" class="node">
<title>45_right_nil</title>
<text text-anchor="middle" x="433.25" y="-3.95" font-family="Times,serif" font-size="14.00">nil</text>
</g>
<!-- 45&#45;&gt;45_right_nil -->
<g id="edge24" class="edge">
<title>45&#45;&gt;45_right_nil</title>
<path fill="none" stroke="black" d="M420.55,-52.39C422.84,-44.69 425.51,-35.69 427.81,-27.94"/>
<polygon fill="black" stroke="black" points="431.09,-29.18 430.58,-18.6 424.38,-27.19 431.09,-29.18"/>
</g>
</g>
</svg>
